<mxfile host="app.diagrams.net" agent="Mozilla/5.0 (Windows NT 10.0; Win64; x64) AppleWebKit/537.36 (KHTML, like Gecko) Chrome/134.0.0.0 Safari/537.36" version="26.2.5">
  <diagram name="Page-1" id="GXydIEfNtLvB5o28g-cl">
    <mxGraphModel dx="1044" dy="562" grid="1" gridSize="10" guides="1" tooltips="1" connect="1" arrows="1" fold="1" page="1" pageScale="1" pageWidth="827" pageHeight="1169" math="0" shadow="0">
      <root>
        <mxCell id="0" />
        <mxCell id="1" parent="0" />
        <mxCell id="2eJGaeboSmwmP4OZA9iW-1" value="Utilisateur" style="text;html=1;align=center;verticalAlign=middle;whiteSpace=wrap;rounded=0;" parent="1" vertex="1">
          <mxGeometry x="140" y="50" width="90" height="30" as="geometry" />
        </mxCell>
        <mxCell id="2eJGaeboSmwmP4OZA9iW-2" value="UI" style="text;html=1;align=center;verticalAlign=middle;whiteSpace=wrap;rounded=0;" parent="1" vertex="1">
          <mxGeometry x="300" y="50" width="60" height="30" as="geometry" />
        </mxCell>
        <mxCell id="2eJGaeboSmwmP4OZA9iW-3" value="Control" style="text;html=1;align=center;verticalAlign=middle;whiteSpace=wrap;rounded=0;" parent="1" vertex="1">
          <mxGeometry x="400" y="50" width="60" height="30" as="geometry" />
        </mxCell>
        <mxCell id="2eJGaeboSmwmP4OZA9iW-4" value="BD" style="text;html=1;align=center;verticalAlign=middle;whiteSpace=wrap;rounded=0;" parent="1" vertex="1">
          <mxGeometry x="530" y="50" width="60" height="30" as="geometry" />
        </mxCell>
        <mxCell id="2eJGaeboSmwmP4OZA9iW-5" value="" style="endArrow=none;dashed=1;html=1;rounded=0;" parent="1" source="2eJGaeboSmwmP4OZA9iW-9" edge="1">
          <mxGeometry width="50" height="50" relative="1" as="geometry">
            <mxPoint x="180" y="1161.5999755859375" as="sourcePoint" />
            <mxPoint x="180" y="90" as="targetPoint" />
          </mxGeometry>
        </mxCell>
        <mxCell id="2eJGaeboSmwmP4OZA9iW-6" value="" style="endArrow=none;dashed=1;html=1;rounded=0;" parent="1" source="2eJGaeboSmwmP4OZA9iW-11" edge="1">
          <mxGeometry width="50" height="50" relative="1" as="geometry">
            <mxPoint x="330" y="1162" as="sourcePoint" />
            <mxPoint x="329.5" y="90" as="targetPoint" />
          </mxGeometry>
        </mxCell>
        <mxCell id="2eJGaeboSmwmP4OZA9iW-7" value="" style="endArrow=none;dashed=1;html=1;rounded=0;" parent="1" source="2eJGaeboSmwmP4OZA9iW-15" edge="1">
          <mxGeometry width="50" height="50" relative="1" as="geometry">
            <mxPoint x="430" y="1160" as="sourcePoint" />
            <mxPoint x="429.5" y="90" as="targetPoint" />
          </mxGeometry>
        </mxCell>
        <mxCell id="2eJGaeboSmwmP4OZA9iW-8" value="" style="endArrow=none;dashed=1;html=1;rounded=0;" parent="1" source="2eJGaeboSmwmP4OZA9iW-22" edge="1">
          <mxGeometry width="50" height="50" relative="1" as="geometry">
            <mxPoint x="560" y="1210" as="sourcePoint" />
            <mxPoint x="559.5" y="90" as="targetPoint" />
          </mxGeometry>
        </mxCell>
        <mxCell id="2eJGaeboSmwmP4OZA9iW-10" value="" style="endArrow=none;dashed=1;html=1;rounded=0;" parent="1" target="2eJGaeboSmwmP4OZA9iW-9" edge="1">
          <mxGeometry width="50" height="50" relative="1" as="geometry">
            <mxPoint x="180" y="1161.5999755859375" as="sourcePoint" />
            <mxPoint x="180" y="90" as="targetPoint" />
          </mxGeometry>
        </mxCell>
        <mxCell id="2eJGaeboSmwmP4OZA9iW-13" style="edgeStyle=orthogonalEdgeStyle;rounded=0;orthogonalLoop=1;jettySize=auto;html=1;exitX=1;exitY=0.25;exitDx=0;exitDy=0;entryX=0;entryY=0.25;entryDx=0;entryDy=0;" parent="1" source="2eJGaeboSmwmP4OZA9iW-9" target="2eJGaeboSmwmP4OZA9iW-11" edge="1">
          <mxGeometry relative="1" as="geometry">
            <Array as="points">
              <mxPoint x="190" y="125" />
            </Array>
          </mxGeometry>
        </mxCell>
        <mxCell id="2eJGaeboSmwmP4OZA9iW-9" value="" style="rounded=0;whiteSpace=wrap;html=1;" parent="1" vertex="1">
          <mxGeometry x="170" y="110" width="20" height="230" as="geometry" />
        </mxCell>
        <mxCell id="2eJGaeboSmwmP4OZA9iW-12" value="" style="endArrow=none;dashed=1;html=1;rounded=0;" parent="1" source="2eJGaeboSmwmP4OZA9iW-17" target="2eJGaeboSmwmP4OZA9iW-11" edge="1">
          <mxGeometry width="50" height="50" relative="1" as="geometry">
            <mxPoint x="330" y="1162" as="sourcePoint" />
            <mxPoint x="329.5" y="90" as="targetPoint" />
          </mxGeometry>
        </mxCell>
        <mxCell id="2eJGaeboSmwmP4OZA9iW-11" value="" style="rounded=0;whiteSpace=wrap;html=1;" parent="1" vertex="1">
          <mxGeometry x="320" y="110" width="20" height="60" as="geometry" />
        </mxCell>
        <mxCell id="2eJGaeboSmwmP4OZA9iW-14" value="parcourir offres" style="text;html=1;align=center;verticalAlign=middle;whiteSpace=wrap;rounded=0;" parent="1" vertex="1">
          <mxGeometry x="190" y="100" width="120" height="30" as="geometry" />
        </mxCell>
        <mxCell id="2eJGaeboSmwmP4OZA9iW-16" value="" style="endArrow=none;dashed=1;html=1;rounded=0;exitX=0.5;exitY=0;exitDx=0;exitDy=0;" parent="1" source="2eJGaeboSmwmP4OZA9iW-53" target="2eJGaeboSmwmP4OZA9iW-15" edge="1">
          <mxGeometry width="50" height="50" relative="1" as="geometry">
            <mxPoint x="430" y="390" as="sourcePoint" />
            <mxPoint x="429.5" y="90" as="targetPoint" />
          </mxGeometry>
        </mxCell>
        <mxCell id="2eJGaeboSmwmP4OZA9iW-15" value="" style="rounded=0;whiteSpace=wrap;html=1;" parent="1" vertex="1">
          <mxGeometry x="420" y="200" width="20" height="60" as="geometry" />
        </mxCell>
        <mxCell id="2eJGaeboSmwmP4OZA9iW-18" value="" style="endArrow=none;dashed=1;html=1;rounded=0;" parent="1" target="2eJGaeboSmwmP4OZA9iW-17" edge="1">
          <mxGeometry width="50" height="50" relative="1" as="geometry">
            <mxPoint x="330" y="1162" as="sourcePoint" />
            <mxPoint x="330" y="170" as="targetPoint" />
          </mxGeometry>
        </mxCell>
        <mxCell id="2eJGaeboSmwmP4OZA9iW-19" style="edgeStyle=orthogonalEdgeStyle;rounded=0;orthogonalLoop=1;jettySize=auto;html=1;exitX=1;exitY=0.25;exitDx=0;exitDy=0;entryX=0;entryY=0.25;entryDx=0;entryDy=0;" parent="1" source="2eJGaeboSmwmP4OZA9iW-17" target="2eJGaeboSmwmP4OZA9iW-15" edge="1">
          <mxGeometry relative="1" as="geometry" />
        </mxCell>
        <mxCell id="2eJGaeboSmwmP4OZA9iW-17" value="" style="rounded=0;whiteSpace=wrap;html=1;" parent="1" vertex="1">
          <mxGeometry x="320" y="200" width="20" height="120" as="geometry" />
        </mxCell>
        <mxCell id="2eJGaeboSmwmP4OZA9iW-20" value="Demander les offres" style="text;html=1;align=center;verticalAlign=middle;whiteSpace=wrap;rounded=0;" parent="1" vertex="1">
          <mxGeometry x="350" y="200" width="60" height="30" as="geometry" />
        </mxCell>
        <mxCell id="2eJGaeboSmwmP4OZA9iW-23" value="" style="endArrow=none;dashed=1;html=1;rounded=0;" parent="1" source="2eJGaeboSmwmP4OZA9iW-55" target="2eJGaeboSmwmP4OZA9iW-22" edge="1">
          <mxGeometry width="50" height="50" relative="1" as="geometry">
            <mxPoint x="560" y="1210" as="sourcePoint" />
            <mxPoint x="559.5" y="90" as="targetPoint" />
          </mxGeometry>
        </mxCell>
        <mxCell id="2eJGaeboSmwmP4OZA9iW-22" value="" style="rounded=0;whiteSpace=wrap;html=1;" parent="1" vertex="1">
          <mxGeometry x="550" y="270" width="20" height="60" as="geometry" />
        </mxCell>
        <mxCell id="2eJGaeboSmwmP4OZA9iW-25" style="edgeStyle=orthogonalEdgeStyle;rounded=0;orthogonalLoop=1;jettySize=auto;html=1;exitX=1;exitY=0.25;exitDx=0;exitDy=0;entryX=0;entryY=0.25;entryDx=0;entryDy=0;" parent="1" source="2eJGaeboSmwmP4OZA9iW-24" target="2eJGaeboSmwmP4OZA9iW-22" edge="1">
          <mxGeometry relative="1" as="geometry" />
        </mxCell>
        <mxCell id="2eJGaeboSmwmP4OZA9iW-31" style="edgeStyle=orthogonalEdgeStyle;rounded=0;orthogonalLoop=1;jettySize=auto;html=1;exitX=0;exitY=0.75;exitDx=0;exitDy=0;dashed=1;endArrow=open;endFill=0;entryX=1;entryY=0.75;entryDx=0;entryDy=0;" parent="1" source="2eJGaeboSmwmP4OZA9iW-24" target="2eJGaeboSmwmP4OZA9iW-17" edge="1">
          <mxGeometry relative="1" as="geometry">
            <mxPoint x="330" y="315" as="targetPoint" />
          </mxGeometry>
        </mxCell>
        <mxCell id="2eJGaeboSmwmP4OZA9iW-24" value="" style="rounded=0;whiteSpace=wrap;html=1;" parent="1" vertex="1">
          <mxGeometry x="420" y="270" width="20" height="60" as="geometry" />
        </mxCell>
        <mxCell id="2eJGaeboSmwmP4OZA9iW-29" value="Demander les offres" style="text;html=1;align=center;verticalAlign=middle;whiteSpace=wrap;rounded=0;" parent="1" vertex="1">
          <mxGeometry x="460" y="250" width="60" height="30" as="geometry" />
        </mxCell>
        <mxCell id="2eJGaeboSmwmP4OZA9iW-30" value="retourner offres" style="html=1;verticalAlign=bottom;endArrow=open;dashed=1;endSize=8;curved=0;rounded=0;entryX=1;entryY=0.75;entryDx=0;entryDy=0;exitX=0;exitY=0.75;exitDx=0;exitDy=0;" parent="1" source="2eJGaeboSmwmP4OZA9iW-22" target="2eJGaeboSmwmP4OZA9iW-24" edge="1">
          <mxGeometry relative="1" as="geometry">
            <mxPoint x="550" y="320" as="sourcePoint" />
            <mxPoint x="470" y="320" as="targetPoint" />
          </mxGeometry>
        </mxCell>
        <mxCell id="2eJGaeboSmwmP4OZA9iW-32" value="afficher offres" style="text;html=1;align=center;verticalAlign=middle;whiteSpace=wrap;rounded=0;" parent="1" vertex="1">
          <mxGeometry x="350" y="260" width="60" height="30" as="geometry" />
        </mxCell>
        <mxCell id="2eJGaeboSmwmP4OZA9iW-33" style="edgeStyle=orthogonalEdgeStyle;rounded=0;orthogonalLoop=1;jettySize=auto;html=1;exitX=0.5;exitY=1;exitDx=0;exitDy=0;" parent="1" source="2eJGaeboSmwmP4OZA9iW-9" target="2eJGaeboSmwmP4OZA9iW-9" edge="1">
          <mxGeometry relative="1" as="geometry" />
        </mxCell>
        <mxCell id="2eJGaeboSmwmP4OZA9iW-38" value="" style="endArrow=none;dashed=1;html=1;rounded=0;" parent="1" source="2eJGaeboSmwmP4OZA9iW-61" edge="1">
          <mxGeometry width="50" height="50" relative="1" as="geometry">
            <mxPoint x="430" y="1160" as="sourcePoint" />
            <mxPoint x="430" y="450" as="targetPoint" />
          </mxGeometry>
        </mxCell>
        <mxCell id="2eJGaeboSmwmP4OZA9iW-43" value="ALT&amp;nbsp;" style="shape=umlFrame;whiteSpace=wrap;html=1;pointerEvents=0;width=56;height=30;" parent="1" vertex="1">
          <mxGeometry x="100" y="380" width="546" height="280" as="geometry" />
        </mxCell>
        <mxCell id="2eJGaeboSmwmP4OZA9iW-44" value="[Clicker un offre]" style="text;html=1;align=center;verticalAlign=middle;whiteSpace=wrap;rounded=0;" parent="1" vertex="1">
          <mxGeometry x="190" y="380" width="90" height="30" as="geometry" />
        </mxCell>
        <mxCell id="2eJGaeboSmwmP4OZA9iW-47" style="edgeStyle=orthogonalEdgeStyle;rounded=0;orthogonalLoop=1;jettySize=auto;html=1;exitX=1;exitY=0.25;exitDx=0;exitDy=0;entryX=0;entryY=0.25;entryDx=0;entryDy=0;" parent="1" source="2eJGaeboSmwmP4OZA9iW-48" target="2eJGaeboSmwmP4OZA9iW-51" edge="1">
          <mxGeometry relative="1" as="geometry" />
        </mxCell>
        <mxCell id="2eJGaeboSmwmP4OZA9iW-48" value="" style="rounded=0;whiteSpace=wrap;html=1;" parent="1" vertex="1">
          <mxGeometry x="320" y="400" width="20" height="140" as="geometry" />
        </mxCell>
        <mxCell id="2eJGaeboSmwmP4OZA9iW-49" value="Envoyer commande" style="text;html=1;align=center;verticalAlign=middle;whiteSpace=wrap;rounded=0;" parent="1" vertex="1">
          <mxGeometry x="343" y="390" width="60" height="50" as="geometry" />
        </mxCell>
        <mxCell id="2eJGaeboSmwmP4OZA9iW-51" value="" style="rounded=0;whiteSpace=wrap;html=1;" parent="1" vertex="1">
          <mxGeometry x="420" y="400" width="20" height="20" as="geometry" />
        </mxCell>
        <mxCell id="2eJGaeboSmwmP4OZA9iW-57" style="edgeStyle=orthogonalEdgeStyle;rounded=0;orthogonalLoop=1;jettySize=auto;html=1;exitX=1;exitY=0.25;exitDx=0;exitDy=0;entryX=0;entryY=0.25;entryDx=0;entryDy=0;" parent="1" source="2eJGaeboSmwmP4OZA9iW-53" target="2eJGaeboSmwmP4OZA9iW-55" edge="1">
          <mxGeometry relative="1" as="geometry" />
        </mxCell>
        <mxCell id="2eJGaeboSmwmP4OZA9iW-53" value="" style="rounded=0;whiteSpace=wrap;html=1;" parent="1" vertex="1">
          <mxGeometry x="420" y="440" width="20" height="60" as="geometry" />
        </mxCell>
        <mxCell id="2eJGaeboSmwmP4OZA9iW-56" value="" style="endArrow=none;dashed=1;html=1;rounded=0;" parent="1" target="2eJGaeboSmwmP4OZA9iW-55" edge="1">
          <mxGeometry width="50" height="50" relative="1" as="geometry">
            <mxPoint x="560" y="1130" as="sourcePoint" />
            <mxPoint x="560" y="50" as="targetPoint" />
          </mxGeometry>
        </mxCell>
        <mxCell id="2eJGaeboSmwmP4OZA9iW-55" value="" style="rounded=0;whiteSpace=wrap;html=1;" parent="1" vertex="1">
          <mxGeometry x="550" y="440" width="20" height="60" as="geometry" />
        </mxCell>
        <mxCell id="2eJGaeboSmwmP4OZA9iW-58" value="Recuperer infos de l&#39;offre" style="text;html=1;align=center;verticalAlign=middle;whiteSpace=wrap;rounded=0;" parent="1" vertex="1">
          <mxGeometry x="450" y="430" width="90" height="50" as="geometry" />
        </mxCell>
        <mxCell id="2eJGaeboSmwmP4OZA9iW-60" value="retourner infos" style="html=1;verticalAlign=bottom;endArrow=open;dashed=1;endSize=8;curved=0;rounded=0;entryX=1;entryY=0.75;entryDx=0;entryDy=0;exitX=0;exitY=0.75;exitDx=0;exitDy=0;" parent="1" edge="1">
          <mxGeometry relative="1" as="geometry">
            <mxPoint x="550" y="490" as="sourcePoint" />
            <mxPoint x="440" y="490" as="targetPoint" />
          </mxGeometry>
        </mxCell>
        <mxCell id="2eJGaeboSmwmP4OZA9iW-62" value="" style="endArrow=none;dashed=1;html=1;rounded=0;" parent="1" target="2eJGaeboSmwmP4OZA9iW-61" edge="1">
          <mxGeometry width="50" height="50" relative="1" as="geometry">
            <mxPoint x="430" y="1090" as="sourcePoint" />
            <mxPoint x="430" y="170" as="targetPoint" />
          </mxGeometry>
        </mxCell>
        <mxCell id="2eJGaeboSmwmP4OZA9iW-63" style="edgeStyle=orthogonalEdgeStyle;rounded=0;orthogonalLoop=1;jettySize=auto;html=1;exitX=0;exitY=0.75;exitDx=0;exitDy=0;entryX=1;entryY=0.75;entryDx=0;entryDy=0;dashed=1;endArrow=open;endFill=0;" parent="1" source="2eJGaeboSmwmP4OZA9iW-61" target="2eJGaeboSmwmP4OZA9iW-48" edge="1">
          <mxGeometry relative="1" as="geometry" />
        </mxCell>
        <mxCell id="2eJGaeboSmwmP4OZA9iW-61" value="" style="rounded=0;whiteSpace=wrap;html=1;" parent="1" vertex="1">
          <mxGeometry x="420" y="520" width="20" height="20" as="geometry" />
        </mxCell>
        <mxCell id="2eJGaeboSmwmP4OZA9iW-64" value="afficher infos de l&#39;offre" style="text;html=1;align=center;verticalAlign=middle;resizable=0;points=[];autosize=1;strokeColor=none;fillColor=none;" parent="1" vertex="1">
          <mxGeometry x="310" y="470" width="140" height="30" as="geometry" />
        </mxCell>
        <mxCell id="2eJGaeboSmwmP4OZA9iW-66" value="" style="shape=umlDestroy;whiteSpace=wrap;html=1;strokeWidth=3;targetShapes=umlLifeline;" parent="1" vertex="1">
          <mxGeometry x="315" y="560" width="30" height="30" as="geometry" />
        </mxCell>
        <mxCell id="Qyof_iJCC47lRRP_IZQQ-12" value="ALT&amp;nbsp;" style="shape=umlFrame;whiteSpace=wrap;html=1;pointerEvents=0;width=56;height=30;" vertex="1" parent="1">
          <mxGeometry x="99" y="670" width="546" height="170" as="geometry" />
        </mxCell>
        <mxCell id="Qyof_iJCC47lRRP_IZQQ-13" value="[Retour]" style="text;html=1;align=center;verticalAlign=middle;whiteSpace=wrap;rounded=0;" vertex="1" parent="1">
          <mxGeometry x="187" y="670" width="60" height="30" as="geometry" />
        </mxCell>
        <mxCell id="Qyof_iJCC47lRRP_IZQQ-14" style="edgeStyle=orthogonalEdgeStyle;rounded=0;orthogonalLoop=1;jettySize=auto;html=1;exitX=1;exitY=0.25;exitDx=0;exitDy=0;entryX=0;entryY=0.25;entryDx=0;entryDy=0;" edge="1" parent="1" source="Qyof_iJCC47lRRP_IZQQ-15" target="Qyof_iJCC47lRRP_IZQQ-17">
          <mxGeometry relative="1" as="geometry" />
        </mxCell>
        <mxCell id="Qyof_iJCC47lRRP_IZQQ-15" value="" style="rounded=0;whiteSpace=wrap;html=1;" vertex="1" parent="1">
          <mxGeometry x="317" y="690" width="20" height="110" as="geometry" />
        </mxCell>
        <mxCell id="Qyof_iJCC47lRRP_IZQQ-16" style="edgeStyle=orthogonalEdgeStyle;rounded=0;orthogonalLoop=1;jettySize=auto;html=1;exitX=0;exitY=0.75;exitDx=0;exitDy=0;entryX=1;entryY=0.75;entryDx=0;entryDy=0;dashed=1;endArrow=open;endFill=0;" edge="1" parent="1" source="Qyof_iJCC47lRRP_IZQQ-17" target="Qyof_iJCC47lRRP_IZQQ-15">
          <mxGeometry relative="1" as="geometry" />
        </mxCell>
        <mxCell id="Qyof_iJCC47lRRP_IZQQ-17" value="" style="rounded=0;whiteSpace=wrap;html=1;" vertex="1" parent="1">
          <mxGeometry x="417" y="690" width="20" height="110" as="geometry" />
        </mxCell>
        <mxCell id="Qyof_iJCC47lRRP_IZQQ-18" value="Envoyer commande" style="text;html=1;align=center;verticalAlign=middle;whiteSpace=wrap;rounded=0;" vertex="1" parent="1">
          <mxGeometry x="342" y="680" width="60" height="30" as="geometry" />
        </mxCell>
        <mxCell id="Qyof_iJCC47lRRP_IZQQ-19" value="Afficher page d&#39;acceuil" style="text;html=1;align=center;verticalAlign=middle;whiteSpace=wrap;rounded=0;" vertex="1" parent="1">
          <mxGeometry x="327" y="740" width="100" height="30" as="geometry" />
        </mxCell>
        <mxCell id="Qyof_iJCC47lRRP_IZQQ-20" value="ALT&amp;nbsp;" style="shape=umlFrame;whiteSpace=wrap;html=1;pointerEvents=0;width=56;height=30;" vertex="1" parent="1">
          <mxGeometry x="99" y="880" width="548" height="110" as="geometry" />
        </mxCell>
        <mxCell id="Qyof_iJCC47lRRP_IZQQ-21" value="[Quitter]" style="text;html=1;align=center;verticalAlign=middle;whiteSpace=wrap;rounded=0;" vertex="1" parent="1">
          <mxGeometry x="169" y="880" width="90" height="30" as="geometry" />
        </mxCell>
        <mxCell id="Qyof_iJCC47lRRP_IZQQ-22" value="" style="shape=umlDestroy;whiteSpace=wrap;html=1;strokeWidth=3;targetShapes=umlLifeline;" vertex="1" parent="1">
          <mxGeometry x="156.5" y="920" width="30" height="30" as="geometry" />
        </mxCell>
      </root>
    </mxGraphModel>
  </diagram>
</mxfile>
